<svg xmlns="http://www.w3.org/2000/svg" version="1.1" xmlns:xlink="http://www.w3.org/1999/xlink" xmlns:svgjs="http://svgjs.dev/svgjs" width="128" height="128" viewBox="0 0 128 128"><g transform="matrix(0.8046875,0,0,0.8046875,12.323516023838366,6.355846710526315)"><svg viewBox="0 0 84 95" data-background-color="#ffffff" preserveAspectRatio="xMidYMid meet" height="144" width="128" xmlns="http://www.w3.org/2000/svg" xmlns:xlink="http://www.w3.org/1999/xlink"><g id="tight-bounds" transform="matrix(1,0,0,1,0.14392867958812872,-0.24049999999999727)"><svg viewBox="0 0 83.71214264082374 95.481" height="95.481" width="83.71214264082374"><g><svg viewBox="0 0 83.71214264082374 95.481" height="95.481" width="83.71214264082374"><g><svg viewBox="0 0 83.71214264082374 95.481" height="95.481" width="83.71214264082374"><g id="textblocktransform"><svg viewBox="0 0 83.71214264082374 95.481" height="95.481" width="83.71214264082374" id="textblock"><g><svg viewBox="0 0 83.71214264082374 95.481" height="95.481" width="83.71214264082374"><g><svg viewBox="0 0 83.71214264082374 95.481" height="95.481" width="83.71214264082374"><g><svg xmlns="http://www.w3.org/2000/svg" xmlns:xlink="http://www.w3.org/1999/xlink" version="1.1" x="0" y="0" viewBox="16 11.959999999999996 57.900000000000006 66.04" enable-background="new 0 0 90 90" xml:space="preserve" height="95.481" width="83.71214264082374" class="icon-icon-0" data-fill-palette-color="accent" id="icon-0"><path d="M24.9 33.3l1.5-0.2c0.3 2.5 1.8 4.6 4 5.7 2.3 1.2 5.1 1.1 7.3-0.3l0.8 1.3c-1.4 0.9-3.1 1.3-4.7 1.3-1.4 0-2.8-0.3-4.1-1C27.1 38.8 25.3 36.2 24.9 33.3zM32.7 17.1c-0.4 0.8-1.4 1.2-2.3 0.7s-1.2-1.4-0.7-2.3c0.4-0.8 1.4-1.2 2.3-0.7C32.8 15.3 33.1 16.3 32.7 17.1zM31.5 15.4c-0.3-0.2-0.8 0-1 0.3-0.2 0.3 0 0.8 0.3 1 0.3 0.2 0.8 0 1-0.3C32 16 31.8 15.5 31.5 15.4zM45.1 22.3c0.3-0.9 1.3-1.3 2.2-0.9 0.9 0.3 1.3 1.3 0.9 2.2s-1.3 1.3-2.2 0.9S44.8 23.2 45.1 22.3zM46.7 23.4c0.4 0.1 0.8 0 0.9-0.4 0.1-0.4 0-0.8-0.4-0.9-0.4-0.1-0.8 0-0.9 0.4C46.1 22.8 46.3 23.2 46.7 23.4zM72.2 57.7c0.9 1.5 1.2 2.8 1.2 4.6 0 2.9-1.3 5.7-3.6 7.5l0 0c-1.3 4.3-5.4 7.4-10.3 7.4-2.5 0-4.9-0.8-6.8-2.4-1.4 0.7-3 1.1-4.7 1.1-1.7 0-3.4-0.4-4.9-1.2-2 2.1-4.7 3.3-7.5 3.3-3.1 0-5.9-1.4-7.8-3.6-4.1-1.5-6.8-5.2-6.8-9.3 0-0.3 0-0.6 0-0.8C17.9 62.3 16 59 16 55.3c0-3 1.3-5.7 3.4-7.7-2-6.7 2-10.2 2.2-10.4 0 0 0.1-0.1 0.1-0.1 0 0-0.1-0.3-0.2-0.5-1.1-3.3-0.8-6.8 0.8-9.9 1.3-2.6 3.4-4.5 5.8-5.8-0.7-0.6-1.2-1.3-1.5-2.2-0.4-1.3-0.3-2.7 0.3-4 0.6-1.2 1.7-2.1 2.9-2.5 1.3-0.4 2.6-0.3 3.9 0.3 2.5 1.3 3.5 4.3 2.2 6.8-0.1 0.1-0.1 0.2-0.2 0.3 1.4 0.2 2.9 0.6 4.2 1.3 0.8 0.4 1.6 0.9 2.3 1.5 0.1-0.3 0.1-0.5 0.2-0.7 1-2.6 4-3.8 6.6-2.8 2.6 1 3.8 4 2.8 6.6-0.5 1.3-1.5 2.3-2.8 2.8-0.6 0.2-1.2 0.4-1.8 0.4-0.3 0-0.5 0-0.8-0.1 1 3.2 0.8 6.7-0.8 9.9-1.6 3.2-4.4 5.5-7.7 6.5-0.5 3.6-2.5 5.7-3.4 6.4 0.4 0.8 1.1 2.6 1 4.3 1.2 0.5 2.4 1.1 3.3 2l-0.1 0.1c0.7 0.2 1.4 0.5 2 0.9 1.9-1.9 4.6-3 7.3-3 0.2 0 0.4 0 0.5 0 0.4-3.6 3.2-6.6 6.9-7.6 1.4-3.8 4.9-6.3 8.9-6.3 5.3 0 9.6 4.4 9.6 9.8 0 2.1-0.6 4.1-1.7 5.7L72.2 57.7zM57.3 47.9c0.3 0 0.7 0 1 0 4 0 7.7 2.2 8.9 5.3 1.6 0.7 3.1 1.7 4.1 3.1 0.8-1.4 1.2-2.8 1.2-4.5 0-4.6-3.6-8.3-8.1-8.3C61.4 43.4 58.6 45.2 57.3 47.9zM50.1 56c1.5 0.3 2.9 0.9 4.1 1.8 0.2-0.1 0.3-0.2 0.5-0.2 1.8-3.1 5.1-5.1 8.7-5.1 0.6 0 1.2 0.1 1.8 0.2-1.3-2-4-3.3-6.9-3.3C54 49.4 50.6 52.3 50.1 56zM43.4 23.6c0.9 1 1.7 2.1 2.3 3.3 0.9 0.4 1.9 0.4 2.8 0.1 0.9-0.4 1.6-1.1 2-2 0.7-1.8-0.1-3.9-2-4.6-1.8-0.7-3.9 0.1-4.6 2-0.2 0.4-0.3 0.8-0.3 1.3L43.4 23.6zM29.9 20.3c1.3-0.4 2.7-0.7 4.1-0.7 0.3-0.3 0.5-0.6 0.7-0.9 0.9-1.7 0.2-3.9-1.5-4.8-0.8-0.4-1.8-0.5-2.7-0.2-0.9 0.3-1.6 0.9-2.1 1.8-0.4 0.9-0.5 1.9-0.2 2.8C28.4 19.1 29 19.8 29.9 20.3zM23 36.2c0.9 2.9 3 5.3 5.7 6.7 1.6 0.8 3.4 1.3 5.2 1.3 4.4 0 8.3-2.4 10.3-6.3 2.9-5.7 0.6-12.6-5-15.5-1.6-0.8-3.4-1.3-5.2-1.3-4.4 0-8.3 2.4-10.3 6.3C22.3 30.1 22.1 33.3 23 36.2zM21 47.7l12.4 2.8c0.6-0.5 2.3-2 2.9-5-0.8 0.1-1.5 0.2-2.3 0.2-2.1 0-4.1-0.5-5.9-1.4-2.5-1.3-4.4-3.2-5.7-5.7C21.6 39.4 19.3 42.4 21 47.7zM21.3 62.6c1.2-4.3 5.3-7.5 10.3-7.5 0.7 0 1.4 0.1 2.1 0.2 0.1 0 0.2 0.1 0.3 0.1 0-1.6-0.8-3.2-1.1-3.5L20.1 49c-1.7 1.7-2.6 3.9-2.6 6.3C17.5 58.3 18.9 60.9 21.3 62.6zM26.2 71.9c-0.6-1.3-0.9-2.7-0.9-4.2 0-5.6 4.5-10.1 10.1-10.3-0.6-0.3-1.3-0.5-2-0.6-0.6-0.1-1.2-0.2-1.9-0.2-5 0-9.1 3.8-9.1 8.4C22.4 67.8 23.9 70.3 26.2 71.9zM42 73.7c-4.3-5-2.9-11.2-2.1-13.6-1.3-0.7-2.8-1.1-4.3-1.1-4.9 0-8.8 3.9-8.8 8.8s4 8.8 8.8 8.8C38.1 76.4 40.3 75.5 42 73.7zM48.1 74.4c1.8 0 3.6-0.5 5.1-1.6 2.3-1.6 3.7-4.2 3.7-7 0-2.6-1.2-5-3.2-6.7-1.6-1.2-3.5-1.9-5.5-1.9-2.5 0-4.9 1.1-6.6 2.9l0 0c-0.7 1.9-2.6 8.2 2.1 13l0 0C44.9 74 46.5 74.4 48.1 74.4zM68.8 66.8c0-4.9-4.1-8.9-9.2-8.9-1.4 0-2.8 0.3-4.1 0.9 1.9 1.9 2.9 4.4 2.9 7 0 3.2-1.6 6.2-4.2 8.1 1.6 1.1 3.4 1.7 5.4 1.7C64.6 75.7 68.8 71.7 68.8 66.8zM71.9 62.3c0-4.6-3.8-8.3-8.5-8.3-2.4 0-4.7 1-6.3 2.7 0.8-0.2 1.6-0.3 2.4-0.3 5.9 0 10.7 4.7 10.7 10.4 0 0.2 0 0.3 0 0.5C71.3 65.8 71.9 64.1 71.9 62.3z" fill="#4d331f" data-fill-palette-color="accent"></path></svg></g></svg></g></svg></g></svg></g></svg></g></svg></g><defs></defs></svg><rect width="83.71214264082374" height="95.481" fill="none" stroke="none" visibility="hidden"></rect></g></svg></g></svg>