<svg xmlns="http://www.w3.org/2000/svg" version="1.1" xmlns:xlink="http://www.w3.org/1999/xlink" xmlns:svgjs="http://svgjs.dev/svgjs" width="1000" height="169" viewBox="0 0 1000 169"><g transform="matrix(1,0,0,1,-0.07815652176475396,-0.15009491525425744)"><svg viewBox="0 0 349 59" data-background-color="#ffffff" preserveAspectRatio="xMidYMid meet" height="169" width="1000" xmlns="http://www.w3.org/2000/svg" xmlns:xlink="http://www.w3.org/1999/xlink"><g id="tight-bounds" transform="matrix(1,0,0,1,0.027276626095897427,0.052400000000005775)"><svg viewBox="0 0 348.945446143367 58.8952" height="58.8952" width="348.945446143367"><g><svg viewBox="0 0 348.945446143367 58.8952" height="58.8952" width="348.945446143367"><g><svg viewBox="0 0 348.945446143367 58.8952" height="58.8952" width="348.945446143367"><g id="textblocktransform"><svg viewBox="0 0 348.945446143367 58.8952" height="58.8952" width="348.945446143367" id="textblock"><g><svg viewBox="0 0 348.945446143367 58.8952" height="58.8952" width="348.945446143367"><g><svg><g></g><g></g></svg></g><g><svg><g><svg></svg></g><g></g></svg></g><g id="text-0"><svg viewBox="0 0 348.945446143367 58.8952" height="58.8952" width="348.945446143367"><g transform="matrix(1,0,0,1,0,11.247599999999998)"><svg width="148.60000000000002" viewBox="2.299999952316284 -35.70000076293945 148.58999633789062 36.400001525878906" height="36.400000000000006" data-palette-color="#4d331f"><path d="M2.3 0L2.3-6.3 5.6-6.3 5.6-28.7 2.3-28.7 2.3-35 17.65-35Q20.15-35 22.08-34.3 24-33.6 25.33-32.4 26.65-31.2 27.33-29.53 28-27.85 28-25.9L28-25.9 28-25.3Q28-22.3 26.33-20.5 24.65-18.7 22.1-18L22.1-18 22.1-17.1Q24.65-16.4 26.33-14.58 28-12.75 28-9.75L28-9.75 28-9.15Q28-7.2 27.33-5.53 26.65-3.85 25.33-2.63 24-1.4 22.08-0.7 20.15 0 17.65 0L17.65 0 2.3 0ZM12.2-14.4L12.2-6.3 17-6.3Q19.1-6.3 20.4-7.2 21.7-8.1 21.7-10.2L21.7-10.2 21.7-10.5Q21.7-12.6 20.4-13.5 19.1-14.4 17-14.4L17-14.4 12.2-14.4ZM12.2-28.7L12.2-20.7 17-20.7Q19.1-20.7 20.4-21.58 21.7-22.45 21.7-24.55L21.7-24.55 21.7-24.85Q21.7-26.95 20.4-27.83 19.1-28.7 17-28.7L17-28.7 12.2-28.7ZM33-13.6L33-21.4Q33-28.2 36.42-31.95 39.85-35.7 45.9-35.7L45.9-35.7Q51.95-35.7 55.37-31.95 58.8-28.2 58.8-21.4L58.8-21.4 58.8-13.6Q58.8-6.6 55.37-2.95 51.95 0.7 45.9 0.7L45.9 0.7Q39.85 0.7 36.42-2.95 33-6.6 33-13.6L33-13.6ZM45.9-5.3L45.9-5.3Q47.7-5.3 48.9-5.88 50.1-6.45 50.85-7.5 51.6-8.55 51.9-10 52.2-11.45 52.2-13.2L52.2-13.2 52.2-21.8Q52.2-23.45 51.85-24.9 51.5-26.35 50.75-27.4 50-28.45 48.8-29.08 47.6-29.7 45.9-29.7L45.9-29.7Q44.2-29.7 43-29.08 41.8-28.45 41.05-27.4 40.3-26.35 39.95-24.9 39.6-23.45 39.6-21.8L39.6-21.8 39.6-13.2Q39.6-11.45 39.9-10 40.2-8.55 40.95-7.5 41.7-6.45 42.9-5.88 44.1-5.3 45.9-5.3ZM63.6-13.6L63.6-21.4Q63.6-28.2 67.02-31.95 70.45-35.7 76.5-35.7L76.5-35.7Q82.55-35.7 85.97-31.95 89.4-28.2 89.4-21.4L89.4-21.4 89.4-13.6Q89.4-6.6 85.97-2.95 82.55 0.7 76.5 0.7L76.5 0.7Q70.45 0.7 67.02-2.95 63.6-6.6 63.6-13.6L63.6-13.6ZM76.5-5.3L76.5-5.3Q78.3-5.3 79.5-5.88 80.7-6.45 81.45-7.5 82.2-8.55 82.5-10 82.8-11.45 82.8-13.2L82.8-13.2 82.8-21.8Q82.8-23.45 82.45-24.9 82.1-26.35 81.35-27.4 80.6-28.45 79.4-29.08 78.2-29.7 76.5-29.7L76.5-29.7Q74.8-29.7 73.6-29.08 72.4-28.45 71.65-27.4 70.9-26.35 70.55-24.9 70.2-23.45 70.2-21.8L70.2-21.8 70.2-13.2Q70.2-11.45 70.5-10 70.8-8.55 71.55-7.5 72.3-6.45 73.5-5.88 74.7-5.3 76.5-5.3ZM102.24-14.35L102.24 0 95.64 0 95.64-35 102.24-35 102.24-20.65 103.69-20.65 112.94-35 120.39-35 120.39-34.7 109.59-17.95 109.59-17.05 120.99-0.3 120.99 0 113.24 0 103.69-14.35 102.24-14.35ZM143.69-23.1L143.69-24.3Q143.69-26.4 142.07-27.95 140.44-29.5 137.49-29.5L137.49-29.5Q134.99-29.5 133.54-28.48 132.09-27.45 132.09-25.7L132.09-25.7Q132.09-24.8 132.44-24.08 132.79-23.35 133.67-22.78 134.54-22.2 135.97-21.75 137.39-21.3 139.59-20.9L139.59-20.9Q145.09-19.9 147.99-17.55 150.89-15.2 150.89-10.6L150.89-10.6 150.89-10Q150.89-7.55 150.02-5.58 149.14-3.6 147.49-2.2 145.84-0.8 143.49-0.05 141.14 0.7 138.19 0.7L138.19 0.7Q134.74 0.7 132.12-0.28 129.49-1.25 127.74-2.98 125.99-4.7 125.09-7.03 124.19-9.35 124.19-12.1L124.19-12.1 124.19-13.6 130.79-13.6 130.79-12.4Q130.79-9.25 132.62-7.38 134.44-5.5 138.29-5.5L138.29-5.5Q141.29-5.5 142.74-6.8 144.19-8.1 144.19-9.9L144.19-9.9Q144.19-10.75 143.89-11.53 143.59-12.3 142.84-12.93 142.09-13.55 140.79-14.05 139.49-14.55 137.49-14.9L137.49-14.9Q134.84-15.35 132.64-16.07 130.44-16.8 128.82-18 127.19-19.2 126.29-21 125.39-22.8 125.39-25.4L125.39-25.4 125.39-25.7Q125.39-27.85 126.27-29.68 127.14-31.5 128.72-32.85 130.29-34.2 132.52-34.95 134.74-35.7 137.49-35.7L137.49-35.7Q140.59-35.7 142.99-34.83 145.39-33.95 147.02-32.45 148.64-30.95 149.47-29 150.29-27.05 150.29-24.9L150.29-24.9 150.29-23.1 143.69-23.1Z" opacity="1" transform="matrix(1,0,0,1,0,0)" fill="#4d331f" class="undefined-p-0" data-fill-palette-color="primary"></path></svg></g><g><svg xmlns="http://www.w3.org/2000/svg" xmlns:xlink="http://www.w3.org/1999/xlink" version="1.1" x="162.50480000000002" y="0" viewBox="16 11.959997177124023 57.899993896484375 66.04000854492188" enable-background="new 0 0 90 90" xml:space="preserve" height="58.8952" width="51.63584614336698" class="icon-s-0" data-fill-palette-color="accent" id="s-0"><path d="M24.9 33.3l1.5-0.2c0.3 2.5 1.8 4.6 4 5.7 2.3 1.2 5.1 1.1 7.3-0.3l0.8 1.3c-1.4 0.9-3.1 1.3-4.7 1.3-1.4 0-2.8-0.3-4.1-1C27.1 38.8 25.3 36.2 24.9 33.3zM32.7 17.1c-0.4 0.8-1.4 1.2-2.3 0.7s-1.2-1.4-0.7-2.3c0.4-0.8 1.4-1.2 2.3-0.7C32.8 15.3 33.1 16.3 32.7 17.1zM31.5 15.4c-0.3-0.2-0.8 0-1 0.3-0.2 0.3 0 0.8 0.3 1 0.3 0.2 0.8 0 1-0.3C32 16 31.8 15.5 31.5 15.4zM45.1 22.3c0.3-0.9 1.3-1.3 2.2-0.9 0.9 0.3 1.3 1.3 0.9 2.2s-1.3 1.3-2.2 0.9S44.8 23.2 45.1 22.3zM46.7 23.4c0.4 0.1 0.8 0 0.9-0.4 0.1-0.4 0-0.8-0.4-0.9-0.4-0.1-0.8 0-0.9 0.4C46.1 22.8 46.3 23.2 46.7 23.4zM72.2 57.7c0.9 1.5 1.2 2.8 1.2 4.6 0 2.9-1.3 5.7-3.6 7.5l0 0c-1.3 4.3-5.4 7.4-10.3 7.4-2.5 0-4.9-0.8-6.8-2.4-1.4 0.7-3 1.1-4.7 1.1-1.7 0-3.4-0.4-4.9-1.2-2 2.1-4.7 3.3-7.5 3.3-3.1 0-5.9-1.4-7.8-3.6-4.1-1.5-6.8-5.2-6.8-9.3 0-0.3 0-0.6 0-0.8C17.9 62.3 16 59 16 55.3c0-3 1.3-5.7 3.4-7.7-2-6.7 2-10.2 2.2-10.4 0 0 0.1-0.1 0.1-0.1 0 0-0.1-0.3-0.2-0.5-1.1-3.3-0.8-6.8 0.8-9.9 1.3-2.6 3.4-4.5 5.8-5.8-0.7-0.6-1.2-1.3-1.5-2.2-0.4-1.3-0.3-2.7 0.3-4 0.6-1.2 1.7-2.1 2.9-2.5 1.3-0.4 2.6-0.3 3.9 0.3 2.5 1.3 3.5 4.3 2.2 6.8-0.1 0.1-0.1 0.2-0.2 0.3 1.4 0.2 2.9 0.6 4.2 1.3 0.8 0.4 1.6 0.9 2.3 1.5 0.1-0.3 0.1-0.5 0.2-0.7 1-2.6 4-3.8 6.6-2.8 2.6 1 3.8 4 2.8 6.6-0.5 1.3-1.5 2.3-2.8 2.8-0.6 0.2-1.2 0.4-1.8 0.4-0.3 0-0.5 0-0.8-0.1 1 3.2 0.8 6.7-0.8 9.9-1.6 3.2-4.4 5.5-7.7 6.5-0.5 3.6-2.5 5.7-3.4 6.4 0.4 0.8 1.1 2.6 1 4.3 1.2 0.5 2.4 1.1 3.3 2l-0.1 0.1c0.7 0.2 1.4 0.5 2 0.9 1.9-1.9 4.6-3 7.3-3 0.2 0 0.4 0 0.5 0 0.4-3.6 3.2-6.6 6.9-7.6 1.4-3.8 4.9-6.3 8.9-6.3 5.3 0 9.6 4.4 9.6 9.8 0 2.1-0.6 4.1-1.7 5.7L72.2 57.7zM57.3 47.9c0.3 0 0.7 0 1 0 4 0 7.7 2.2 8.9 5.3 1.6 0.7 3.1 1.7 4.1 3.1 0.8-1.4 1.2-2.8 1.2-4.5 0-4.6-3.6-8.3-8.1-8.3C61.4 43.4 58.6 45.2 57.3 47.9zM50.1 56c1.5 0.3 2.9 0.9 4.1 1.8 0.2-0.1 0.3-0.2 0.5-0.2 1.8-3.1 5.1-5.1 8.7-5.1 0.6 0 1.2 0.1 1.8 0.2-1.3-2-4-3.3-6.9-3.3C54 49.4 50.6 52.3 50.1 56zM43.4 23.6c0.9 1 1.7 2.1 2.3 3.3 0.9 0.4 1.9 0.4 2.8 0.1 0.9-0.4 1.6-1.1 2-2 0.7-1.8-0.1-3.9-2-4.6-1.8-0.7-3.9 0.1-4.6 2-0.2 0.4-0.3 0.8-0.3 1.3L43.4 23.6zM29.9 20.3c1.3-0.4 2.7-0.7 4.1-0.7 0.3-0.3 0.5-0.6 0.7-0.9 0.9-1.7 0.2-3.9-1.5-4.8-0.8-0.4-1.8-0.5-2.7-0.2-0.9 0.3-1.6 0.9-2.1 1.8-0.4 0.9-0.5 1.9-0.2 2.8C28.4 19.1 29 19.8 29.9 20.3zM23 36.2c0.9 2.9 3 5.3 5.7 6.7 1.6 0.8 3.4 1.3 5.2 1.3 4.4 0 8.3-2.4 10.3-6.3 2.9-5.7 0.6-12.6-5-15.5-1.6-0.8-3.4-1.3-5.2-1.3-4.4 0-8.3 2.4-10.3 6.3C22.3 30.1 22.1 33.3 23 36.2zM21 47.7l12.4 2.8c0.6-0.5 2.3-2 2.9-5-0.8 0.1-1.5 0.2-2.3 0.2-2.1 0-4.1-0.5-5.9-1.4-2.5-1.3-4.4-3.2-5.7-5.7C21.6 39.4 19.3 42.4 21 47.7zM21.3 62.6c1.2-4.3 5.3-7.5 10.3-7.5 0.7 0 1.4 0.1 2.1 0.2 0.1 0 0.2 0.1 0.3 0.1 0-1.6-0.8-3.2-1.1-3.5L20.1 49c-1.7 1.7-2.6 3.9-2.6 6.3C17.5 58.3 18.9 60.9 21.3 62.6zM26.2 71.9c-0.6-1.3-0.9-2.7-0.9-4.2 0-5.6 4.5-10.1 10.1-10.3-0.6-0.3-1.3-0.5-2-0.6-0.6-0.1-1.2-0.2-1.9-0.2-5 0-9.1 3.8-9.1 8.4C22.4 67.8 23.9 70.3 26.2 71.9zM42 73.7c-4.3-5-2.9-11.2-2.1-13.6-1.3-0.7-2.8-1.1-4.3-1.1-4.9 0-8.8 3.9-8.8 8.8s4 8.8 8.8 8.8C38.1 76.4 40.3 75.5 42 73.7zM48.1 74.4c1.8 0 3.6-0.5 5.1-1.6 2.3-1.6 3.7-4.2 3.7-7 0-2.6-1.2-5-3.2-6.7-1.6-1.2-3.5-1.9-5.5-1.9-2.5 0-4.9 1.1-6.6 2.9l0 0c-0.7 1.9-2.6 8.2 2.1 13l0 0C44.9 74 46.5 74.4 48.1 74.4zM68.8 66.8c0-4.9-4.1-8.9-9.2-8.9-1.4 0-2.8 0.3-4.1 0.9 1.9 1.9 2.9 4.4 2.9 7 0 3.2-1.6 6.2-4.2 8.1 1.6 1.1 3.4 1.7 5.4 1.7C64.6 75.7 68.8 71.7 68.8 66.8zM71.9 62.3c0-4.6-3.8-8.3-8.5-8.3-2.4 0-4.7 1-6.3 2.7 0.8-0.2 1.6-0.3 2.4-0.3 5.9 0 10.7 4.7 10.7 10.4 0 0.2 0 0.3 0 0.5C71.3 65.8 71.9 64.1 71.9 62.3z" fill="#4d331f" data-fill-palette-color="accent"></path></svg></g><g transform="matrix(1,0,0,1,228.045446143367,11.247599999999998)"><svg width="120.90000000000002" viewBox="0.4000000059604645 -35.70000076293945 120.88999938964844 36.400001525878906" height="36.400000000000006" data-palette-color="#4d331f"><path d="M30.2-35L29 0 17.5 0 15.9-26.6 15.9-31.4 14.7-31.4 14.7-26.6 13.1 0 1.6 0 0.4-35 6.4-35 7.2-8.4 7.2-3.9 8.4-3.9 8.4-8.4 10-35 20.6-35 22.2-8.4 22.2-3.9 23.4-3.9 23.4-8.4 24.2-35 30.2-35ZM33-13.6L33-21.4Q33-28.2 36.42-31.95 39.85-35.7 45.9-35.7L45.9-35.7Q51.95-35.7 55.37-31.95 58.8-28.2 58.8-21.4L58.8-21.4 58.8-13.6Q58.8-6.6 55.37-2.95 51.95 0.7 45.9 0.7L45.9 0.7Q39.85 0.7 36.42-2.95 33-6.6 33-13.6L33-13.6ZM45.9-5.3L45.9-5.3Q47.7-5.3 48.9-5.88 50.1-6.45 50.85-7.5 51.6-8.55 51.9-10 52.2-11.45 52.2-13.2L52.2-13.2 52.2-21.8Q52.2-23.45 51.85-24.9 51.5-26.35 50.75-27.4 50-28.45 48.8-29.08 47.6-29.7 45.9-29.7L45.9-29.7Q44.2-29.7 43-29.08 41.8-28.45 41.05-27.4 40.3-26.35 39.95-24.9 39.6-23.45 39.6-21.8L39.6-21.8 39.6-13.2Q39.6-11.45 39.9-10 40.2-8.55 40.95-7.5 41.7-6.45 42.9-5.88 44.1-5.3 45.9-5.3ZM88.35-12.1L88.35 0 81.75 0 81.75-10.5Q81.75-11.7 81.12-12.45 80.5-13.2 79.05-13.2L79.05-13.2 71.45-13.2 71.45 0 64.85 0 64.85-35 78.25-35Q80.95-35 83-34.25 85.05-33.5 86.42-32.18 87.8-30.85 88.52-29.1 89.25-27.35 89.25-25.35L89.25-25.35 89.25-24.15Q89.25-22 88.1-20.13 86.95-18.25 84.55-17.25L84.55-17.25 84.55-16.35Q86.3-16.15 87.32-15 88.35-13.85 88.35-12.1L88.35-12.1ZM71.45-28.7L71.45-19.5 77.75-19.5Q80.15-19.5 81.4-20.63 82.65-21.75 82.65-23.8L82.65-23.8 82.65-24.4Q82.65-26.15 81.4-27.43 80.15-28.7 77.75-28.7L77.75-28.7 71.45-28.7ZM92.89 0L92.89-35 104.49-35 106.49-8.7 106.49-3.6 107.69-3.6 107.69-8.7 109.69-35 121.29-35 121.29 0 115.29 0 115.29-23.4 115.89-31.4 114.69-31.4 112.09 0 102.19 0 99.49-31.4 98.29-31.4 98.89-23.4 98.89 0 92.89 0Z" opacity="1" transform="matrix(1,0,0,1,0,0)" fill="#4d331f" class="undefined-p-1" data-fill-palette-color="secondary"></path></svg></g></svg></g></svg></g></svg></g></svg></g></svg></g><defs></defs></svg><rect width="348.945446143367" height="58.8952" fill="none" stroke="none" visibility="hidden"></rect></g></svg></g></svg>